<?xml version="1.0" standalone="no"?>
<!DOCTYPE svg PUBLIC "-//W3C//DTD SVG 20010904//EN"
 "http://www.w3.org/TR/2001/REC-SVG-20010904/DTD/svg10.dtd">
<svg version="1.0" xmlns="http://www.w3.org/2000/svg"
 width="32.000000pt" height="32.000000pt" viewBox="0 0 32.000000 32.000000"
 preserveAspectRatio="xMidYMid meet">

<g transform="translate(0.000000,32.000000) scale(0.100000,-0.100000)"
fill="#000000" stroke="none">
<path d="M0 258 l0 -63 16 32 c18 37 38 56 79 77 l30 16 -62 0 -63 0 0 -62z"/>
<path d="M220 309 c35 -14 70 -49 86 -84 13 -29 13 -28 14 33 l0 62 -62 -1
c-52 0 -59 -2 -38 -10z"/>
<path d="M120 229 c-9 -16 -8 -26 5 -45 20 -31 50 -31 70 0 23 34 5 66 -35 66
-19 0 -33 -7 -40 -21z m60 -4 c17 -20 5 -45 -20 -45 -11 0 -23 7 -26 15 -6 15
11 45 26 45 4 0 13 -7 20 -15z"/>
<path d="M83 133 c-8 -12 -13 -30 -11 -40 3 -15 16 -18 86 -21 92 -3 108 8 81
57 -13 23 -21 25 -78 26 -55 1 -65 -2 -78 -22z m145 -19 c9 -19 7 -23 -11 -28
-28 -7 -86 -7 -114 0 -18 5 -20 9 -11 28 8 20 17 23 68 23 51 0 60 -3 68 -23z"/>
<path d="M1 63 l-1 -63 63 0 c60 1 61 1 32 14 -35 16 -70 51 -84 86 -8 21 -10
14 -10 -37z"/>
<path d="M310 106 c0 -22 -51 -77 -85 -92 -29 -13 -28 -13 33 -14 l62 0 0 60
c0 33 -2 60 -5 60 -3 0 -5 -6 -5 -14z"/>
</g>
</svg>
