<svg width="1142" height="741" viewBox="0 0 1142 741" fill="none" xmlns="http://www.w3.org/2000/svg">
<path d="M1138.24 705.013L1141.08 701.038C1141.08 701.038 1137.61 701.688 1134.71 697.807C1131.82 693.927 1134.2 689.828 1130.06 687.413L1126.7 691.59C1127.85 692.164 1128.86 692.977 1129.66 693.976C1130.46 694.976 1131.02 696.139 1131.32 697.391C1131.91 700.398 1132.85 703.828 1138.24 705.013Z" fill="#5DBD6D"/>
<path d="M1068.69 660.077L1064.96 661.158C1064.96 661.158 1067.41 662.57 1067.26 666.588C1067.11 670.605 1063.61 672.096 1064.92 675.761L1069.07 674.844C1068.65 673.866 1068.43 672.809 1068.44 671.744C1068.46 670.678 1068.69 669.627 1069.14 668.659C1070.33 666.36 1071.43 663.655 1068.69 660.077Z" fill="#455A64"/>
<path d="M1044.52 739.307C1044.34 739.123 1044.22 738.89 1044.17 738.638C1044.13 738.385 1044.15 738.125 1044.26 737.89C1044.36 737.655 1044.53 737.455 1044.74 737.316C1044.96 737.177 1045.21 737.105 1045.46 737.109C1045.72 737.113 1045.97 737.193 1046.18 737.338C1046.39 737.484 1046.55 737.689 1046.65 737.928C1046.74 738.166 1046.77 738.427 1046.71 738.678C1046.66 738.928 1046.53 739.157 1046.35 739.336C1046.1 739.575 1045.77 739.706 1045.43 739.7C1045.08 739.695 1044.76 739.553 1044.52 739.307Z" fill="#5DBD6D"/>
<path d="M1018.63 632.234L1023.25 631.578C1023.25 631.578 1022.94 625.562 1018.21 625.947C1018.21 625.938 1020.8 628.05 1018.63 632.234Z" fill="#455A64"/>
<path d="M1014.45 621.093L1011.96 624.959C1011.96 624.959 1013.97 628.064 1018.22 625.875C1018.21 625.938 1013.86 624.997 1014.45 621.093Z" fill="#455A64"/>
<path d="M441.346 596L446 594.512C446 594.512 442.827 592.956 442.827 588.116C442.827 583.275 447.185 581.411 445.309 577L440.119 578.341C440.703 579.492 441.026 580.747 441.067 582.024C441.108 583.301 440.867 584.573 440.359 585.756C439.034 588.518 437.736 591.83 441.346 596Z" fill="#5DBD6D"/>
<path d="M910.346 669L915 667.512C915 667.512 911.827 665.956 911.827 661.116C911.827 656.275 916.185 654.411 914.309 650L909.119 651.341C909.703 652.492 910.026 653.747 910.067 655.024C910.108 656.301 909.867 657.573 909.359 658.756C908.034 661.518 906.736 664.83 910.346 669Z" fill="#5DBD6D"/>
<path d="M406.536 277.265L406 281.122C406 281.122 408.232 279.445 411.881 281.234C415.531 283.023 415.397 286.824 419.325 287.103L420.151 282.933C419.094 282.916 418.051 282.679 417.09 282.236C416.13 281.794 415.272 281.155 414.571 280.362C412.93 278.349 410.91 276.248 406.536 277.265Z" fill="#455A64"/>
<path d="M82.5792 474.019C82.6192 474.196 82.622 474.38 82.5873 474.558C82.5527 474.736 82.4813 474.906 82.3779 475.055C82.2744 475.204 82.1411 475.33 81.9864 475.424C81.8317 475.519 81.659 475.58 81.4794 475.604C81.2997 475.629 81.117 475.615 80.9429 475.565C80.7688 475.514 80.607 475.428 80.468 475.311C80.3289 475.195 80.2156 475.051 80.1353 474.888C80.0549 474.725 80.0093 474.547 80.0013 474.366C79.9868 474.039 80.0949 473.719 80.3042 473.469C80.5135 473.218 80.8088 473.055 81.1321 473.012C81.4553 472.968 81.7831 473.047 82.051 473.234C82.3188 473.42 82.5072 473.701 82.5792 474.019Z" fill="#263238"/>
<path d="M360.178 2.25926C360.246 2.76984 360.161 3.28923 359.935 3.75177C359.709 4.2143 359.35 4.59921 358.906 4.85783C358.461 5.11645 357.95 5.23716 357.437 5.20471C356.923 5.17227 356.431 4.98812 356.022 4.67555C355.614 4.36297 355.307 3.93601 355.14 3.44864C354.974 2.96126 354.955 2.43536 355.087 1.93742C355.219 1.43948 355.495 0.991854 355.88 0.651141C356.266 0.310428 356.744 0.0919264 357.254 0.0232539C357.592 -0.0223668 357.936 -0.000724631 358.267 0.0869706C358.597 0.174666 358.907 0.326685 359.178 0.534335C359.45 0.741985 359.678 1.00121 359.849 1.29718C360.021 1.59315 360.132 1.92007 360.178 2.25926Z" fill="#263238"/>
<path d="M482.626 138.827L483.151 134.981C483.151 134.981 480.919 136.658 477.27 134.869C473.62 133.081 473.765 129.279 469.837 129L469 133.17C470.057 133.187 471.1 133.424 472.06 133.867C473.021 134.31 473.879 134.948 474.58 135.742C476.265 137.754 478.296 139.856 482.626 138.827Z" fill="#5DBD6D"/>
<path d="M442 388.356L435.838 386C435.838 386 437.728 390.443 433.456 395.805C429.184 401.167 422.928 399.635 421 406.032L427.559 409C427.977 407.224 428.759 405.556 429.852 404.105C430.946 402.653 432.329 401.45 433.91 400.574C437.822 398.601 442.038 396.054 442 388.356Z" fill="#5DBD6D"/>
<path d="M20.9997 87.3555L14.8378 85C14.8378 85 16.728 89.443 12.4562 94.8052C8.18441 100.167 1.92797 98.6353 0 105.032L6.55888 108C6.97722 106.224 7.75856 104.556 8.8525 103.105C9.94643 101.653 11.3286 100.45 12.9098 99.5737C16.8225 97.6012 21.0376 95.0541 20.9997 87.3555Z" fill="#5DBD6D"/>
</svg>
