<svg width="453" height="460" viewBox="0 0 453 460" fill="none" xmlns="http://www.w3.org/2000/svg">
<path d="M292.222 198.603C275.661 209.247 247.225 216.268 225.028 214.311C221.536 214.054 218.072 213.504 214.671 212.668C210.107 211.55 205.665 210.287 201.38 209.113C172.855 201.287 148.236 194.579 105.783 206.172C55.0833 220.013 43.7782 226.296 42.7961 226.43L50.2845 218.258L40.3521 212.053C40.5864 212.053 52.0589 205.714 101.922 192.097C148.191 179.474 175.857 187.043 205.152 195.048C209.393 196.166 213.767 197.407 218.209 198.548C219.931 198.98 221.674 199.324 223.432 199.576C244.547 202.617 275.125 195.104 287.747 185.042C289.073 184.029 290.169 182.745 290.961 181.274L291.173 196.926C291.452 197.161 291.742 197.754 292.222 198.603Z" fill="#5DBD6D"/>
<path opacity="0.2" d="M292.222 198.603C275.661 209.247 247.225 216.268 225.028 214.311C221.536 214.054 218.072 213.504 214.671 212.668C210.107 211.55 205.665 210.287 201.38 209.113C172.855 201.287 148.236 194.579 105.783 206.172C55.0833 220.013 43.7782 226.296 42.7961 226.43L50.2845 218.258L40.3521 212.053C40.5864 212.053 52.0589 205.714 101.922 192.097C148.191 179.474 175.857 187.043 205.152 195.048C209.393 196.166 213.767 197.407 218.209 198.548C219.931 198.98 221.674 199.324 223.432 199.576C244.547 202.617 275.125 195.104 287.747 185.042C289.073 184.029 290.169 182.745 290.961 181.274L291.173 196.926C291.452 197.161 291.742 197.754 292.222 198.603Z" fill="black"/>
<path d="M288.907 175.841C288.907 175.841 289.164 213.428 281.821 221.545C281.821 221.545 233.375 310.885 207.272 315.96C185.164 320.265 104.667 260.552 104.667 260.552L130.123 221.266C130.123 221.266 144.196 228.13 163.391 238.628C179.238 247.304 192.853 257.131 193.266 256.404C199.27 245.582 223.755 214.826 223.275 212.802C217.974 190.297 234 175.908 234 175.908L288.907 175.841Z" fill="#263238"/>
<path d="M281.81 221.545C281.81 221.545 269.913 243.502 254.724 266.265L223.264 212.769C217.985 190.274 234.011 175.875 234.011 175.875H288.918C288.918 175.875 289.153 213.428 281.81 221.545Z" fill="#37474F"/>
<path d="M31.6361 253.251C32.3615 250.535 74.5798 187.077 77.7269 185.691C78.9098 185.143 130.179 221.265 130.179 221.265L104.745 260.395L72.0911 239.31C72.0911 239.31 45.7758 255.935 42.16 257.097C38.5441 258.26 30.8995 255.957 31.6361 253.251Z" fill="#FFCCB3"/>
<path d="M31.6473 253.251C32.3727 250.534 74.5798 187.077 77.7158 185.69C78.285 185.422 94.4558 196.446 104.109 203.086L77.9613 243.167L72.0354 239.354C72.0354 239.354 45.7759 255.923 42.16 257.097C38.5442 258.271 30.8996 255.945 31.6473 253.251Z" fill="#EBEBEB"/>
<path d="M31.4907 253.541C32.2272 250.847 74.2893 186.573 77.4029 185.176C78.5859 184.639 88.1723 191.079 98.3502 199.117L71.9345 240.014C71.9345 240.014 45.5634 256.202 41.9811 257.387C38.3987 258.572 30.7653 256.269 31.4907 253.541Z" fill="#5DBD6D"/>
<path d="M34.6157 254.325C41.9255 243.905 70.3835 201.187 76.8117 190.331C76.8117 190.241 76.8117 190.197 76.7447 190.331C69.2899 200.493 41.1667 243.447 34.4483 254.247C34.3033 254.437 34.4707 254.537 34.6157 254.325Z" fill="#263238"/>
<path d="M46.9474 254.817C47.7634 253.66 48.3298 252.346 48.6103 250.958C48.8909 249.571 48.8795 248.139 48.5767 246.756C48.0598 244.26 46.6004 242.061 44.5033 240.618C44.5033 240.618 44.3694 240.685 44.4252 240.741C46.2818 242.496 47.5186 244.808 47.9494 247.329C48.3801 249.85 47.9815 252.442 46.8135 254.716C46.7688 254.817 46.8916 254.906 46.9474 254.817Z" fill="#263238"/>
<path d="M68.6646 242.619C71.5439 238.426 73.3183 232.557 71.6108 227.571C71.5439 227.381 71.276 227.47 71.2537 227.638C70.7285 232.641 69.6697 237.573 68.0954 242.351C68.0809 242.422 68.0907 242.496 68.1232 242.561C68.1557 242.626 68.209 242.678 68.2747 242.709C68.3404 242.74 68.4145 242.748 68.4852 242.732C68.5559 242.715 68.6191 242.676 68.6646 242.619Z" fill="#263238"/>
<path d="M65.2164 245.09C68.0956 240.898 69.8701 235.028 68.1626 230.031C68.0956 229.841 67.8278 229.941 67.8055 230.109C67.2789 235.112 66.2201 240.044 64.6472 244.822C64.6326 244.893 64.6424 244.967 64.6749 245.032C64.7074 245.097 64.7608 245.149 64.8265 245.18C64.8921 245.211 64.9663 245.219 65.037 245.203C65.1077 245.187 65.1709 245.147 65.2164 245.09Z" fill="#263238"/>
<path d="M61.7678 247.471C64.6471 243.267 66.4216 237.409 64.7141 232.412C64.6471 232.222 64.3793 232.322 64.357 232.49C63.8303 237.489 62.7716 242.418 61.1987 247.192C61.1801 247.264 61.187 247.34 61.2182 247.408C61.2493 247.476 61.3028 247.531 61.3697 247.563C61.4365 247.596 61.5126 247.605 61.5852 247.588C61.6577 247.571 61.7222 247.53 61.7678 247.471Z" fill="#263238"/>
<path d="M58.3196 249.898C61.1989 245.694 62.9733 239.78 61.2658 234.838C61.1989 234.648 60.931 234.749 60.9087 234.917C60.3821 239.916 59.3233 244.845 57.7504 249.618C57.7319 249.691 57.7388 249.767 57.7699 249.835C57.8011 249.902 57.8546 249.957 57.9214 249.99C57.9883 250.023 58.0644 250.032 58.1369 250.015C58.2095 249.998 58.274 249.957 58.3196 249.898Z" fill="#263238"/>
<path d="M85.0589 199.721C88.206 194.958 80.8181 190.05 77.671 194.824C74.5239 199.598 81.9118 204.495 85.0589 199.721Z" fill="#263238"/>
<path d="M76.912 254.75C80.1261 253.777 80.1819 249.909 79.2221 247.371C77.8456 243.926 75.7708 240.804 73.1288 238.203C72.7716 237.823 72.3922 237.477 72.0128 237.085C71.8381 236.953 71.6704 236.811 71.5106 236.66L71.3655 236.571L70.9526 236.236C70.9356 236.224 70.9162 236.217 70.896 236.214C70.8757 236.211 70.8551 236.213 70.8357 236.22C70.8163 236.226 70.7987 236.237 70.7841 236.251C70.7695 236.266 70.7584 236.283 70.7517 236.303C70.6333 236.261 70.5057 236.254 70.3833 236.282C70.261 236.309 70.1489 236.371 70.0598 236.459C70.0082 236.505 69.9674 236.562 69.9404 236.626C69.9134 236.69 69.9008 236.759 69.9035 236.828C69.9035 238.047 69.9035 239.299 69.9035 240.551C69.8923 240.767 69.8923 240.983 69.9035 241.199C69.7449 244.248 70.0995 247.302 70.9526 250.233C71.7784 252.76 73.8876 255.644 76.912 254.75ZM71.332 243.57C71.332 242.519 71.265 241.468 71.2316 240.428C71.1981 239.388 71.1646 238.662 71.12 237.778C71.12 237.655 71.12 237.521 71.12 237.409C71.12 237.298 71.12 237.175 71.12 237.074L71.3208 237.32C71.7449 237.89 72.1578 238.438 72.5931 238.986C73.7452 240.468 74.8144 242.013 75.796 243.614C76.4824 244.72 77.0938 245.87 77.6262 247.058C78.4074 248.914 79.1663 255.443 74.2782 252.782C71.5998 251.34 71.4882 246.119 71.3878 243.547L71.332 243.57Z" fill="#263238"/>
<path d="M70.5954 237.365C70.5947 237.386 70.5989 237.406 70.6077 237.425C70.6164 237.444 70.6294 237.461 70.6456 237.474C70.6618 237.487 70.6809 237.496 70.7012 237.5C70.7216 237.505 70.7427 237.504 70.7628 237.499C70.8965 237.475 71.0273 237.438 71.1534 237.387C71.2038 237.406 71.2593 237.406 71.3096 237.387C71.544 237.354 71.7729 237.291 71.9904 237.197C72.8115 236.964 73.6137 236.669 74.3898 236.314C77.5104 235.003 80.3516 233.105 82.7598 230.724C84.6793 228.79 86.1748 225.235 83.6303 223.054C83.5383 222.977 83.4413 222.907 83.3401 222.842C80.9854 221.132 78.0503 222.842 76.3428 224.72C74.638 226.734 73.2494 228.996 72.2248 231.428C71.477 233.116 70.774 234.782 69.9928 236.47C69.9422 236.569 69.9189 236.678 69.9254 236.789C69.9318 236.899 69.9677 237.005 70.0294 237.097C70.091 237.188 70.1761 237.261 70.2757 237.309C70.3753 237.356 70.4857 237.375 70.5954 237.365ZM74.0773 231.048C75.1933 228.723 77.4253 224.005 80.5055 223.748C81.2116 223.652 81.9306 223.74 82.5924 224.005C84.9583 225.123 82.4473 229.181 81.2309 230.333C80.267 231.212 79.2454 232.027 78.1731 232.77C77.3695 233.34 76.5549 233.888 75.6955 234.346C74.3229 235.174 72.9167 235.923 71.5217 236.716C71.4324 236.716 71.3543 236.828 71.265 236.862C71.3191 236.783 71.3605 236.696 71.3878 236.605C71.5217 236.381 71.6333 236.18 71.7449 235.945C72.5372 234.335 73.2738 232.68 74.0773 231.048Z" fill="#263238"/>
<path d="M452.413 415.127C450.66 417.363 386.691 458.65 383.221 458.729C381.915 458.729 349.328 405.165 349.328 405.165L388.254 379.451L409.793 411.873C409.793 411.873 440.483 407.166 444.255 407.535C448.027 407.904 454.165 412.935 452.413 415.127Z" fill="#FFCCB3"/>
<path d="M452.401 415.126C450.66 417.362 386.68 458.65 383.209 458.728C382.584 458.728 372.15 442.171 365.934 432.221L405.875 405.914L409.781 411.784C409.781 411.784 440.46 407.077 444.243 407.446C448.027 407.815 454.165 412.946 452.401 415.126Z" fill="#EBEBEB"/>
<path d="M452.658 414.914C450.917 417.15 386.758 459.231 383.343 459.265C382.038 459.265 375.822 449.549 369.684 438.112L410.183 411.168C410.183 411.168 440.817 406.842 444.567 407.211C448.317 407.58 454.388 412.723 452.658 414.914Z" fill="#5DBD6D"/>
<path d="M450.103 412.946C439.255 419.587 396.155 447.392 385.933 454.771C385.855 454.838 385.933 454.894 385.933 454.838C396.825 448.499 439.713 420.347 450.17 413.125C450.437 412.969 450.337 412.79 450.103 412.946Z" fill="#263238"/>
<path d="M438.998 407.569C437.794 408.302 436.755 409.276 435.944 410.43C435.134 411.585 434.57 412.894 434.289 414.277C433.773 416.769 434.237 419.364 435.583 421.522C435.583 421.589 435.74 421.522 435.706 421.443C434.702 419.094 434.486 416.481 435.09 413.998C435.693 411.514 437.084 409.294 439.054 407.67C439.166 407.636 439.077 407.513 438.998 407.569Z" fill="#263238"/>
<path d="M414.212 410.073C409.904 412.779 405.92 417.486 405.519 422.707C405.519 422.908 405.786 422.93 405.876 422.774C408.351 418.398 411.288 414.301 414.636 410.554C414.686 410.495 414.714 410.419 414.713 410.341C414.712 410.263 414.683 410.188 414.632 410.13C414.58 410.072 414.509 410.034 414.432 410.024C414.355 410.013 414.277 410.031 414.212 410.073Z" fill="#263238"/>
<path d="M418.352 409.223C414.033 411.929 410.06 416.647 409.659 421.857C409.659 422.058 409.927 422.08 410.016 421.935C412.487 417.556 415.421 413.456 418.765 409.704C418.81 409.645 418.833 409.572 418.831 409.498C418.829 409.424 418.801 409.353 418.753 409.296C418.705 409.24 418.638 409.202 418.566 409.189C418.493 409.176 418.417 409.188 418.352 409.223Z" fill="#263238"/>
<path d="M422.482 408.385C418.163 411.091 414.19 415.798 413.788 421.019C413.788 421.22 414.056 421.243 414.145 421.086C416.617 416.711 419.55 412.614 422.895 408.866C422.94 408.807 422.963 408.734 422.961 408.66C422.958 408.586 422.931 408.515 422.882 408.458C422.834 408.402 422.768 408.364 422.695 408.351C422.622 408.338 422.547 408.35 422.482 408.385Z" fill="#263238"/>
<path d="M426.611 407.536C422.292 410.241 418.319 414.959 417.917 420.169C417.917 420.371 418.185 420.393 418.274 420.248C420.746 415.869 423.679 411.768 427.024 408.017C427.068 407.958 427.092 407.885 427.089 407.811C427.087 407.736 427.06 407.665 427.011 407.609C426.963 407.553 426.897 407.515 426.824 407.501C426.751 407.488 426.676 407.5 426.611 407.536Z" fill="#263238"/>
<path d="M382.116 442.864C377.328 445.972 382.116 453.429 386.937 450.31C391.758 447.191 386.904 439.745 382.116 442.864Z" fill="#263238"/>
<path d="M411.489 395.662C408.141 395.26 406.567 398.793 406.433 401.51C406.328 405.215 406.985 408.903 408.364 412.343C408.543 412.835 408.755 413.304 408.967 413.763C409.078 413.953 409.168 414.154 409.257 414.344L409.357 414.49L409.603 414.959C409.615 414.975 409.631 414.988 409.65 414.998C409.668 415.007 409.688 415.011 409.709 415.011C409.729 415.011 409.749 415.007 409.768 414.998C409.786 414.988 409.802 414.975 409.815 414.959C409.907 415.047 410.022 415.106 410.147 415.13C410.271 415.154 410.4 415.141 410.518 415.093C410.583 415.072 410.642 415.037 410.692 414.99C410.742 414.944 410.781 414.888 410.808 414.825C411.266 413.707 411.779 412.589 412.281 411.404C412.382 411.214 412.46 411.024 412.549 410.822C413.907 408.087 414.797 405.143 415.183 402.113C415.406 399.542 414.625 396.02 411.489 395.662ZM412.103 408.139C411.723 409.123 411.321 410.096 410.987 411.057C410.652 412.019 410.339 412.712 410.027 413.539C410.027 413.651 409.938 413.785 409.904 413.886L409.793 414.199C409.793 414.098 409.737 413.998 409.714 413.897C409.692 413.796 409.714 413.897 409.714 413.897C409.547 413.215 409.402 412.544 409.223 411.862C408.744 410.045 408.372 408.2 408.107 406.339C407.923 405.05 407.822 403.751 407.806 402.449C407.806 400.436 409.726 394.153 413.141 398.536C414.982 400.906 413.029 405.747 412.103 408.139Z" fill="#263238"/>
<path d="M410.362 414.121C410.371 414.102 410.375 414.081 410.375 414.061C410.374 414.04 410.369 414.019 410.359 414.001C410.349 413.982 410.335 413.966 410.318 413.954C410.302 413.942 410.282 413.934 410.261 413.931C410.128 413.916 409.993 413.916 409.86 413.931C409.835 413.919 409.809 413.913 409.781 413.913C409.754 413.913 409.728 413.919 409.703 413.931C409.477 413.874 409.245 413.844 409.011 413.842C408.165 413.723 407.31 413.67 406.456 413.685C403.078 413.631 399.721 414.227 396.568 415.44C394.046 416.447 391.256 419.107 392.718 422.148C392.771 422.256 392.83 422.361 392.896 422.461C394.381 424.966 397.762 424.552 400.061 423.579C402.439 422.405 404.622 420.87 406.534 419.029C407.895 417.788 409.212 416.491 410.563 415.284C410.682 415.225 410.779 415.13 410.839 415.011C410.899 414.893 410.919 414.758 410.897 414.627C410.874 414.496 410.81 414.376 410.713 414.285C410.617 414.194 410.494 414.136 410.362 414.121ZM404.659 418.526C402.684 420.203 398.755 423.635 395.854 422.651C395.168 422.464 394.544 422.098 394.046 421.589C392.305 419.633 396.278 416.894 397.807 416.324C399.04 415.905 400.301 415.569 401.579 415.317C402.539 415.116 403.51 414.971 404.48 414.848C406.076 414.647 407.661 414.524 409.257 414.345H409.558C409.479 414.402 409.404 414.465 409.335 414.535C409.123 414.691 408.944 414.837 408.744 415.004C407.371 416.145 406.043 417.352 404.659 418.526Z" fill="#263238"/>
<path d="M389.437 380.659L349.361 405.109C349.361 405.109 308.505 362.145 299.141 325.049C296.318 313.869 248.62 244.218 232.617 226.766C211.558 203.791 232.784 175.808 232.784 175.808H290.95L291.24 196.837C295.816 204.272 389.437 380.659 389.437 380.659Z" fill="#263238"/>
<path d="M279.176 186.954C281.429 188.297 283.571 189.819 285.582 191.504C287.618 193.16 289.521 194.973 291.273 196.927C289.017 195.583 286.875 194.058 284.867 192.365C282.831 190.714 280.928 188.904 279.176 186.954Z" fill="#37474F"/>
<path d="M269.288 67.697C268.574 63.225 267.625 58.5182 260.952 56.3493C246.633 51.7096 236.4 71.2634 219.872 77.5242C199.962 85.1042 191.972 97.1451 200.074 104.882C209.125 113.546 225.932 108.716 239.837 84.7576C248.542 69.7876 256.298 66.0088 259.869 66.0647C262.447 66.0647 266.063 71.2969 266.063 71.2969L269.288 67.697Z" fill="#263238"/>
<path d="M244.837 76.6523C243.285 78.8883 242.002 81.3591 240.64 83.7405C239.279 86.1218 237.962 88.5255 236.556 90.8621C235.15 93.1988 233.665 95.5018 232.025 97.6707C230.428 99.8573 228.619 101.88 226.623 103.708C224.664 105.551 222.368 106.997 219.86 107.968C217.288 108.859 214.581 109.298 211.859 109.264C209.106 109.238 206.395 108.58 203.935 107.341C202.691 106.721 201.532 105.944 200.487 105.027C199.969 104.566 199.481 104.073 199.025 103.551C198.55 103.038 198.151 102.458 197.842 101.83C198.406 103.131 199.23 104.303 200.264 105.273C201.262 106.287 202.387 107.166 203.612 107.889C204.86 108.605 206.19 109.168 207.573 109.566C208.96 109.959 210.386 110.192 211.825 110.259C213.253 110.331 214.684 110.267 216.1 110.069L217.16 109.902L218.198 109.689C218.9 109.536 219.593 109.342 220.273 109.108C222.943 108.1 225.392 106.581 227.483 104.636C231.476 100.767 234.825 96.2829 237.404 91.354C238.754 88.9392 239.982 86.4796 241.176 84.0088C242.37 81.538 243.542 79.0672 244.837 76.6523Z" fill="#263238"/>
<path d="M269.322 68.994C269.188 67.0907 268.813 65.2123 268.206 63.404C267.59 61.6388 266.58 60.0377 265.253 58.7222C263.927 57.4068 262.318 56.4118 260.55 55.8128C259.672 55.5136 258.768 55.3002 257.849 55.1755C256.942 55.0247 256.022 54.9685 255.104 55.0078C253.272 55.1493 251.479 55.607 249.803 56.3606C248.112 57.1552 246.508 58.1218 245.015 59.245C241.98 61.481 239.167 64.0748 236.255 66.5679C233.354 69.1231 230.265 71.4552 227.014 73.5442C223.678 75.4942 220.197 77.1837 216.602 78.5976C213.041 79.941 209.574 81.5209 206.223 83.3267C204.554 84.2437 203.009 85.3709 201.625 86.6807L200.621 87.6758C200.308 88.0447 200.029 88.4248 199.728 88.7938L199.281 89.3528L198.902 89.9565L198.154 91.1863C199.811 87.662 202.486 84.7174 205.832 82.7342C209.153 80.7885 212.598 79.0631 216.144 77.569C219.627 76.0653 223.005 74.3285 226.255 72.3703C229.43 70.2977 232.444 67.9881 235.272 65.4611C238.196 63.0015 241.009 60.3854 244.2 58.1382C245.791 56.9841 247.496 55.9987 249.289 55.1979C251.119 54.4061 253.079 53.9625 255.07 53.8898C256.067 53.8851 257.062 53.9825 258.039 54.1805C259.009 54.3569 259.961 54.6188 260.885 54.9631C262.742 55.6402 264.412 56.7525 265.753 58.2072C267.095 59.6619 268.069 61.4169 268.596 63.3257C269.105 65.1712 269.349 67.0797 269.322 68.994Z" fill="#263238"/>
<path d="M273.864 67.9541C273.73 66.5677 272.525 64.9131 271.632 64.7789C270.739 64.6448 264.467 68.2895 264.099 70.0559C263.731 71.8223 266.856 72.9515 266.856 72.9515L273.864 67.9541Z" fill="#5DBD6D"/>
<path d="M284.857 115.983C292.903 98.0952 300.693 84.1091 312.757 62.9341C319.028 51.9107 329.943 34.1568 332.744 29.3941C336.438 23.1781 362.82 47.2821 359.841 51.1951C357.899 53.7777 346.839 69.8098 336.159 81.1464C322.443 95.6804 312.321 109.186 297.01 124.212C285.437 135.604 279.544 127.8 284.857 115.983Z" fill="#FFCCB3"/>
<path d="M352.419 58.8534C359.037 56.282 379.114 42.0834 382.439 38.4611C385.765 34.8388 394.593 23.5246 392.048 20.6849C389.504 17.8452 386.658 20.9309 386.658 20.9309C386.658 20.9309 390.006 15.1285 386.803 12.9595C384.258 11.2378 380.029 15.3744 380.029 15.3744C380.029 15.3744 383.377 8.82294 379.917 7.07886C376.781 5.48012 373.344 11.1037 373.344 11.1037C373.344 11.1037 375.576 5.33477 372.228 4.39565C368.244 3.27765 364.416 13.2279 360.398 17.0067C359.494 17.8676 334.094 33.2289 334.094 33.2289L352.419 58.8534Z" fill="#FFCCB3"/>
<path d="M373.188 10.8019C369.539 17.9795 367.82 20.8639 361.604 25.4477C361.481 25.5371 361.604 25.7384 361.715 25.6489C368.222 21.7024 370.51 18.4602 373.556 10.9249C373.701 10.5559 373.367 10.4665 373.188 10.8019Z" fill="#263238"/>
<path d="M379.951 15.3633C376.268 22.7198 373.534 25.5036 367.34 30.8029C367.251 30.8812 367.34 31.0265 367.463 30.9594C373.947 26.275 377.507 23.2564 380.174 15.4304C380.33 15.0727 380.118 15.0279 379.951 15.3633Z" fill="#263238"/>
<path d="M386.312 21.1993C382.283 28.0638 379.46 31.4402 372.82 35.8228C372.794 35.8451 372.777 35.8756 372.772 35.9091C372.766 35.9426 372.773 35.9769 372.79 36.006C372.807 36.0352 372.834 36.0575 372.866 36.0689C372.898 36.0804 372.933 36.0803 372.965 36.0687C380.174 32.2675 383.723 28.0862 386.513 21.3447C386.736 20.8863 386.602 20.7633 386.312 21.1993Z" fill="#263238"/>
<path d="M329.273 35.7891C329.273 35.7891 332.008 25.0004 342.23 21.0315C346.348 19.4216 352.118 7.1571 355.923 7.40306C360.175 7.68256 357.129 18.7843 351.951 24.7544C351.951 24.7544 358.859 35.7555 354.183 41.7257C353.167 43.0225 345.746 47.1256 343.893 46.7455L329.273 35.7891Z" fill="#FFCCB3"/>
<path d="M351.638 25.5483C354.484 29.7408 356.459 36.1022 354.439 40.7308C354.424 40.7575 354.42 40.7889 354.429 40.8183C354.437 40.8476 354.457 40.8725 354.484 40.8873C354.51 40.9021 354.542 40.9057 354.571 40.8973C354.6 40.889 354.625 40.8693 354.64 40.8426C357.486 36.1805 355.254 28.7905 352.497 25.1906C351.961 24.5086 350.901 24.475 351.638 25.5483Z" fill="#263238"/>
<path d="M292.657 166.629L290.916 175.841H234C234 175.841 242.928 129.12 263.741 115.257C274.165 108.325 283.673 111.366 288.293 119.147C289.465 121.115 301.373 141.731 301.038 151.569C300.726 160.335 292.657 166.629 292.657 166.629Z" fill="#FFCCB3"/>
<path d="M301.05 151.614C300.748 159.786 293.617 165.846 292.736 166.573L237.248 162.827C238.543 158.288 240.217 152.967 242.348 147.477C247.861 147.676 253.381 147.426 258.854 146.728C261.276 146.27 266.666 138.187 273.563 139.014C280.46 139.841 287.356 146.728 287.356 146.728C290.384 143.482 294.308 141.213 298.628 140.21C300.101 144.47 301.161 148.573 301.05 151.614Z" fill="#263238"/>
<path d="M288.305 119.136C288.01 118.633 287.686 118.148 287.334 117.683C288.975 122.445 292.077 132.943 288.082 133.983C283.696 135.101 272.659 117.962 269.244 112.473C267.308 113.174 265.464 114.109 263.753 115.256C247.783 125.71 234.402 163.465 232.762 175.807H290.928L292.657 166.595C292.657 166.595 300.726 160.301 301.05 151.58C301.385 141.731 289.477 121.115 288.305 119.136ZM266.621 141.999C263.675 148.383 256.968 153.336 252.504 152.732C248.854 152.229 247.147 147.265 248.598 140.926C251.098 130.126 261.733 114.206 266.577 114.586C272.134 115.022 271.509 131.367 266.621 141.999Z" fill="#455A64"/>
<path d="M274.255 158.892C277.369 159.423 280.432 160.228 283.406 161.296C284.89 161.855 286.33 162.503 287.78 163.174C288.495 163.521 289.22 163.823 290.012 164.124C290.759 164.47 291.553 164.703 292.367 164.818C292.434 164.818 292.423 164.952 292.367 164.952C291.597 164.95 290.828 164.887 290.068 164.762C289.332 164.603 288.608 164.39 287.903 164.124C286.397 163.577 284.912 162.939 283.439 162.369C280.404 161.251 277.379 160.133 274.288 159.194C274.054 159.161 274.109 158.859 274.255 158.892Z" fill="#263238"/>
<path d="M266.353 161.754C268.936 161.581 271.527 161.581 274.109 161.754C275.404 161.855 276.676 162.045 277.96 162.269C278.562 162.381 279.176 162.504 279.779 162.638C280.381 162.772 281.095 163.04 281.765 163.174C281.843 163.174 281.832 163.32 281.765 163.308C281.129 163.197 280.471 163.23 279.834 163.163L277.904 162.984C276.62 162.872 275.337 162.772 274.042 162.638C271.476 162.369 268.909 162.146 266.331 161.989C266.186 162 266.219 161.754 266.353 161.754Z" fill="#263238"/>
<path d="M238.107 156.6C243.623 156.9 249.152 156.9 254.668 156.6C265.304 155.874 277.301 153.939 277.546 154.096C277.993 154.387 298.951 153.895 298.951 153.895L300.569 154.812L300.826 153.694L299.386 152.911C299.896 151.307 300.011 149.604 299.721 147.947C299.23 145.32 295.257 134.531 295.146 134.229C295.034 133.927 288.16 118.331 288.07 118.242C287.981 118.152 287.334 117.672 287.334 117.672L294.186 134.319C291.926 134.818 289.632 135.151 287.323 135.314C284.505 135.178 281.697 134.898 278.908 134.475C278.908 134.475 273.998 121.551 273.216 120.221C272.435 118.89 269.779 112.26 269.511 112.395C269.258 112.479 269.001 112.55 268.741 112.607C268.741 112.607 272.759 122.669 273.339 123.698C273.919 124.726 277.669 135.224 277.669 135.224C277.669 135.224 278.473 143.989 278.506 145.566C278.294 147.899 277.944 150.217 277.457 152.508C277.457 152.508 265.516 154.264 254.97 155.169C246.176 155.941 238.475 155.896 238.364 155.896C238.252 155.896 238.107 156.6 238.107 156.6Z" fill="white"/>
<path d="M284.298 139.841L284.801 150.619C284.801 151.189 284.522 151.636 284.142 151.659C283.763 151.681 283.439 151.256 283.417 150.686L282.993 141.742L282.513 142.178C282.424 142.278 282.3 142.338 282.167 142.346C282.029 142.335 281.897 142.284 281.787 142.198C281.678 142.113 281.597 141.997 281.553 141.865C281.442 141.643 281.398 141.393 281.428 141.147C281.458 140.9 281.56 140.668 281.72 140.479L283.193 139.07C283.193 139.07 283.193 139.07 283.26 139.07H283.327C283.327 139.07 283.327 139.07 283.383 139.07C283.412 139.059 283.444 139.059 283.472 139.07H283.64C283.64 139.07 283.696 139.07 283.718 139.07H283.774C283.774 139.07 283.83 139.126 283.852 139.126C283.87 139.13 283.889 139.13 283.908 139.126V139.182C283.908 139.182 283.908 139.182 283.964 139.249C284.019 139.316 283.964 139.249 283.964 139.327L284.019 139.394C284.019 139.394 284.019 139.45 284.019 139.484C284.019 139.517 284.019 139.562 284.019 139.573C284.022 139.603 284.022 139.633 284.019 139.662C284.003 139.706 284.003 139.753 284.019 139.797L284.298 139.841Z" fill="#263238"/>
<path d="M295.704 139.685L293.081 150.641C292.992 151.021 292.757 151.256 292.467 151.267C292.374 151.275 292.281 151.256 292.199 151.211C292.011 151.059 291.87 150.856 291.793 150.626C291.716 150.397 291.706 150.15 291.764 149.914L293.996 140.412L290.771 140.557C290.392 140.557 290.057 140.11 290.034 139.562C290.012 139.014 290.302 138.544 290.671 138.533L294.967 138.332C295.007 138.322 295.05 138.322 295.09 138.332C295.187 138.358 295.278 138.404 295.358 138.466V138.522C295.365 138.544 295.365 138.567 295.358 138.589L295.414 138.656V138.735C295.415 138.764 295.415 138.794 295.414 138.824V138.913C295.414 138.913 295.414 138.98 295.414 139.003C295.409 139.032 295.409 139.063 295.414 139.092C295.425 139.226 295.425 139.361 295.414 139.495C295.715 139.573 295.715 139.629 295.704 139.685Z" fill="#263238"/>
<path d="M273.496 113.166C273.708 114.429 279.143 122.904 284.856 123.004C286.709 123.004 287.323 112.875 287.323 112.875L287.535 112.126L290.548 101.773L278.73 93.0418L277.011 91.9238C277.011 91.9238 276.375 94.8083 275.616 98.4194C275.616 98.5871 275.549 98.7548 275.504 98.9337C275.46 99.1126 275.415 99.325 275.382 99.5151C275.259 100.052 275.136 100.633 275.025 101.147C274.913 101.662 274.857 101.975 274.79 102.411C274.723 102.847 274.634 103.283 274.545 103.73C273.984 106.848 273.634 110.001 273.496 113.166Z" fill="#FFCCB3"/>
<path d="M275.616 98.397C276.489 101.415 278.007 104.206 280.066 106.577C282.124 108.948 284.673 110.842 287.535 112.126L290.548 101.773L278.73 93.0418L277.011 91.9238C277.011 91.9238 276.375 94.7859 275.616 98.397Z" fill="#263238"/>
<path d="M299.32 77.4458C308.571 93.9698 299.733 101.382 296.173 103.372C292.947 105.183 281.665 110.941 270.817 95.4679C259.97 79.9948 264.657 70.4583 271.833 65.9304C279.008 61.4025 290.068 60.9329 299.32 77.4458Z" fill="#FFCCB3"/>
<path d="M294.8 76.093C294.396 76.2503 293.982 76.381 293.561 76.4843C293.141 76.6852 292.666 76.7402 292.211 76.6408C292.074 76.583 291.96 76.4813 291.888 76.3518C291.815 76.2223 291.787 76.0723 291.809 75.9253C291.899 75.6462 292.061 75.3958 292.278 75.1995C292.496 75.0032 292.761 74.8679 293.048 74.8073C293.615 74.5896 294.243 74.5896 294.811 74.8073C294.931 74.8672 295.031 74.9595 295.101 75.0738C295.171 75.188 295.207 75.3196 295.206 75.4536C295.205 75.5876 295.166 75.7186 295.094 75.8316C295.023 75.9447 294.92 76.0352 294.8 76.093Z" fill="#263238"/>
<path d="M284.008 82.2533C284.363 81.9984 284.698 81.7181 285.013 81.4148C285.411 81.1755 285.717 80.8094 285.883 80.3751C285.91 80.2275 285.886 80.0751 285.815 79.943C285.744 79.8108 285.63 79.7069 285.492 79.6484C285.208 79.5638 284.906 79.5588 284.619 79.6336C284.332 79.7085 284.07 79.8605 283.863 80.0732C283.365 80.4277 283.022 80.9598 282.903 81.5602C282.884 81.6969 282.905 81.8362 282.963 81.9613C283.022 82.0864 283.115 82.1919 283.232 82.2652C283.348 82.3385 283.484 82.3763 283.622 82.3742C283.759 82.3721 283.894 82.3301 284.008 82.2533Z" fill="#263238"/>
<path d="M293.048 93.3998C293.443 93.615 293.9 93.6862 294.342 93.601C294.777 93.3915 295.159 93.0857 295.458 92.7066C295.458 92.7066 295.547 92.7066 295.536 92.7066C295.487 93.0112 295.358 93.2972 295.162 93.535C294.966 93.7728 294.71 93.9538 294.42 94.0594C294.154 94.111 293.878 94.0823 293.627 93.9768C293.377 93.8713 293.164 93.6939 293.014 93.4668C292.903 93.4445 292.981 93.3774 293.048 93.3998Z" fill="#263238"/>
<path d="M295.481 86.703C295.481 86.703 296.653 88.257 297.088 89.0508C297.088 89.1178 296.965 89.2632 296.697 89.4309C296.083 89.9369 295.341 90.2631 294.553 90.3736C293.766 90.4841 292.963 90.3745 292.233 90.057C292.217 90.0443 292.206 90.0272 292.2 90.0078C292.194 89.9885 292.194 89.9678 292.2 89.9484C292.206 89.9291 292.218 89.9121 292.234 89.8995C292.25 89.887 292.269 89.8795 292.289 89.8781C293.682 90.0083 295.08 89.6827 296.273 88.9501C296.206 88.7042 294.186 86.3564 294.309 86.2781C294.953 85.9902 295.632 85.7909 296.329 85.6856C293.996 82.3316 291.151 79.4695 288.874 76.149C288.855 76.1249 288.845 76.0943 288.847 76.0635C288.85 76.0326 288.863 76.0037 288.886 75.9825C288.908 75.9614 288.938 75.9495 288.969 75.9493C289 75.9491 289.03 75.9605 289.053 75.9813C292.199 79.0003 295.036 82.326 297.523 85.9092C297.836 86.334 295.916 86.6582 295.481 86.703Z" fill="#263238"/>
<path d="M295.771 89.688C295.645 90.4248 295.334 91.1173 294.867 91.7004C294.601 92.0083 294.246 92.2269 293.851 92.3265C292.992 92.5277 292.602 91.8457 292.423 91.2085C292.325 90.844 292.276 90.468 292.278 90.0905C293.455 90.3369 294.68 90.1957 295.771 89.688Z" fill="#263238"/>
<path d="M294.867 91.6783C294.6 91.9862 294.246 92.2048 293.851 92.3044C292.992 92.5056 292.601 91.8236 292.423 91.1864C292.827 90.9846 293.286 90.9234 293.729 91.0125C294.172 91.1016 294.572 91.3359 294.867 91.6783Z" fill="#FF9CBD"/>
<path d="M286.352 86.0545C286.349 86.2124 286.315 86.3682 286.251 86.5129C286.21 86.6334 286.143 86.7432 286.054 86.8341C285.965 86.9251 285.857 86.9949 285.738 87.0383C285.001 87.329 284.321 86.7477 283.908 86.0545C283.908 86.0545 283.908 85.9651 283.908 85.9874C284.388 86.1998 284.923 86.4011 285.292 86.1328C285.523 85.8956 285.682 85.5968 285.749 85.2719C285.924 85.552 286.126 85.8142 286.352 86.0545Z" fill="#263238"/>
<path d="M285.872 86.0545C285.732 85.6995 285.693 85.3123 285.761 84.9365C285.805 84.7378 285.889 84.5501 286.008 84.3849C286.127 84.2197 286.278 84.0802 286.452 83.975C286.638 83.8817 286.842 83.833 287.05 83.833C287.257 83.833 287.461 83.8817 287.647 83.975C287.974 84.1295 288.261 84.3593 288.484 84.6458C288.617 84.815 288.736 84.9944 288.841 85.1825C289.071 85.5708 289.208 86.0069 289.242 86.457C289.094 86.1688 288.918 85.8955 288.718 85.6409C288.532 85.4116 288.33 85.195 288.115 84.9924C287.68 84.5899 287.156 84.344 286.776 84.5899C286.563 84.7311 286.404 84.9413 286.327 85.1855C286.25 85.4297 286.259 85.6931 286.352 85.9315C286.494 86.5389 286.696 87.1306 286.955 87.698C286.468 87.2443 286.097 86.6809 285.872 86.0545Z" fill="#263238"/>
<path d="M296.519 79.7154C296.656 79.7906 296.802 79.847 296.954 79.8831C297.078 79.9122 297.207 79.9143 297.332 79.8893C297.458 79.8642 297.576 79.8125 297.679 79.7378C297.952 79.4719 298.12 79.1167 298.153 78.7369C298.186 78.3572 298.081 77.9783 297.858 77.6695C297.858 77.6695 297.791 77.5912 297.78 77.6695C297.691 78.1949 297.568 78.7875 297.144 78.9105C296.819 78.9799 296.48 78.9487 296.173 78.821C296.322 79.1048 296.438 79.4049 296.519 79.7154Z" fill="#263238"/>
<path d="M296.764 79.324C296.543 79.0314 296.251 78.8005 295.916 78.6532C295.725 78.5819 295.522 78.5502 295.319 78.5598C295.115 78.5694 294.916 78.6202 294.733 78.7091C294.551 78.8073 294.394 78.9461 294.274 79.1147C294.154 79.2834 294.074 79.4774 294.041 79.6817C293.986 80.0571 294.021 80.4401 294.141 80.7997C294.219 81.001 294.309 81.2022 294.398 81.3923C294.602 81.7966 294.896 82.1486 295.257 82.4208C295.087 82.1404 294.952 81.84 294.856 81.5264C294.759 81.2495 294.684 80.9654 294.632 80.6767C294.543 80.0842 294.632 79.5587 295.034 79.3351C295.269 79.2342 295.531 79.2169 295.776 79.2861C296.022 79.3553 296.237 79.5068 296.384 79.7153C296.805 80.164 297.179 80.6547 297.5 81.1798C297.408 80.5108 297.155 79.8741 296.764 79.324Z" fill="#263238"/>
<path d="M278.886 67.328C280.014 68.5747 280.741 70.1331 280.973 71.8C281.151 76.5403 276.073 77.9378 275.303 80.2521C274.533 82.5663 276.609 85.0707 276.029 87.1725C275.214 90.0793 273.239 89.3414 273.629 90.806C274.02 92.2706 275.326 96.8991 273.942 98.3078C272.558 99.7165 250.361 75.9478 272.603 65.4162C272.603 65.4162 274.957 62.42 280.816 62.5206C289.22 62.6659 294.8 70.682 294.8 70.682C293.967 70.9064 293.096 70.9522 292.244 70.8162C290.715 70.4472 289.822 70.0224 288.74 69.8212C287.032 69.5193 286.642 70.5814 284.901 70.3242C282.211 69.9106 278.886 67.328 278.886 67.328Z" fill="#263238"/>
<path d="M278.194 66.4559C279.103 67.3626 279.905 68.3718 280.582 69.4634C281.306 70.4905 281.735 71.6971 281.821 72.9515C281.736 74.2089 281.191 75.3908 280.292 76.272C279.455 77.1999 278.372 77.9042 277.491 78.944C277.033 79.4748 276.729 80.1201 276.609 80.811C276.555 81.4908 276.634 82.1745 276.844 82.8234C277.302 83.9842 277.433 85.2489 277.223 86.4793C277.069 87.0725 276.79 87.6259 276.405 88.1022C276.021 88.5785 275.538 88.9668 274.991 89.2408C273.875 89.8221 272.513 90.1463 271.699 91.1973C272.603 90.2134 273.931 90.0793 275.114 89.5091C275.734 89.2461 276.289 88.8493 276.738 88.3468C277.188 87.8443 277.521 87.2487 277.714 86.6023C278.007 85.2943 277.906 83.9286 277.424 82.6781C277.245 82.0999 277.177 81.4929 277.223 80.8893C277.34 80.3075 277.61 79.7674 278.004 79.3241C278.785 78.3738 279.868 77.6359 280.75 76.6409C281.206 76.1472 281.582 75.5852 281.866 74.9751C282.176 74.3633 282.326 73.6822 282.301 72.9962C282.161 71.6689 281.654 70.4069 280.839 69.3515C280.077 68.2831 279.189 67.3109 278.194 66.4559Z" fill="#263238"/>
<path d="M279.176 67.2275C279.939 68.1624 280.825 68.9898 281.81 69.6871C282.81 70.4364 284.01 70.8721 285.258 70.9393C285.866 70.9325 286.471 70.8651 287.066 70.7381C287.603 70.6444 288.156 70.7024 288.662 70.9057C289.175 71.2212 289.717 71.487 290.28 71.6995C290.869 71.8642 291.487 71.891 292.088 71.7778C291.503 71.7711 290.926 71.6456 290.392 71.4088C289.859 71.1556 289.355 70.8484 288.885 70.4921C288.306 70.1884 287.646 70.0749 286.999 70.1679C286.432 70.2759 285.857 70.332 285.28 70.3356C284.135 70.2445 283.032 69.8594 282.077 69.2176C281.069 68.616 280.1 67.9513 279.176 67.2275Z" fill="#263238"/>
<path d="M274.6 94.7751C274.6 94.7751 268.596 90.795 266.654 93.154C264.713 95.513 270.728 102.333 274.087 102.266C274.517 102.287 274.947 102.22 275.351 102.071C275.755 101.921 276.125 101.691 276.438 101.394C276.75 101.097 277 100.74 277.171 100.345C277.343 99.9486 277.432 99.5221 277.435 99.0906L274.6 94.7751Z" fill="#FFCCB3"/>
<path d="M268.429 95.0654C268.373 95.0654 268.429 95.1548 268.429 95.1548C270.806 95.1548 272.636 96.653 274.176 98.3188C273.976 98.1601 273.744 98.0469 273.496 97.987C273.247 97.9271 272.989 97.922 272.738 97.972C272.488 98.022 272.251 98.1258 272.045 98.2764C271.838 98.427 271.667 98.6208 271.543 98.8442C271.543 98.9113 271.543 98.9672 271.643 98.9337C271.955 98.6831 272.336 98.5339 272.735 98.5059C273.134 98.4779 273.531 98.5726 273.875 98.7772C274.454 99.1361 274.992 99.5558 275.482 100.029C275.65 100.175 275.94 99.9399 275.783 99.761C274.813 97.0778 271.364 94.2157 268.429 95.0654Z" fill="#263238"/>
<path d="M301.496 82.0635C302.682 84.4462 303.402 87.0344 303.616 89.6882C303.728 91.0241 303.672 92.3688 303.449 93.6907C303.34 94.355 303.191 95.012 303.003 95.6584C302.791 96.3025 302.542 96.9335 302.255 97.5478C301.665 98.7614 300.914 99.8896 300.023 100.902C299.108 101.883 298.069 102.74 296.932 103.451C294.661 104.848 292.081 105.662 289.421 105.821C290.708 105.587 291.965 105.212 293.171 104.703C295.572 103.764 297.723 102.279 299.454 100.365C300.296 99.4086 301.002 98.3401 301.552 97.19C302.655 94.8659 303.161 92.3027 303.025 89.733C302.997 88.4367 302.851 87.1457 302.59 85.8759C302.325 84.5783 301.96 83.3036 301.496 82.0635Z" fill="#263238"/>
<path d="M259.936 130.025C259.669 129.589 259.401 129.153 259.122 128.717C260.863 130.483 262.671 132.16 264.545 133.782C264.545 133.782 264.657 133.782 264.612 133.714C262.771 131.59 260.896 129.511 258.943 127.487C258.017 126.537 257.124 125.553 256.164 124.625C255.205 123.697 253.932 122.602 252.95 121.506C252.827 121.372 252.615 121.506 252.738 121.674C253.709 122.713 254.58 123.843 255.517 124.927C256.454 126.011 257.191 126.761 258.061 127.644C258.226 127.989 258.409 128.324 258.608 128.65C258.943 129.175 259.278 129.69 259.646 130.193C260.383 131.188 261.164 132.16 261.878 133.133C261.231 132.172 260.572 131.054 259.936 130.025Z" fill="#263238"/>
<path d="M267.369 114.418C258.831 95.4124 251.678 81.6945 238.877 59.2115C232.181 47.5061 223.767 33.4975 220.787 28.4442C216.87 21.8368 188.858 47.3719 192.028 51.5868C194.081 54.3371 200.889 63.214 212.908 77.4797C226.613 93.7242 238.219 107.241 254.479 123.206C266.755 135.247 273.016 126.962 267.369 114.418Z" fill="#FFCCB3"/>
<path d="M198.958 57.9592C191.927 55.2313 170.623 40.2053 167.085 36.3035C163.547 32.4017 154.184 20.4614 156.885 17.4428C159.585 14.4242 162.61 17.7 162.61 17.7C162.61 17.7 159.061 11.5398 162.453 9.23672C165.154 7.4032 169.641 11.7969 169.641 11.7969C169.641 11.7969 166.114 4.84298 169.763 2.9871C173.111 1.29892 176.749 7.25786 176.749 7.25786C176.749 7.25786 174.384 1.1424 177.865 0.125019C182.095 -1.08242 186.191 9.51622 190.42 13.541C191.38 14.4578 218.32 30.7582 218.32 30.7582L198.958 57.9592Z" fill="#FFCCB3"/>
<path d="M176.894 6.95617C180.778 14.5809 182.608 17.6219 189.17 22.5075C189.293 22.597 189.17 22.8094 189.037 22.72C182.129 18.5275 179.707 15.084 176.47 7.06796C176.359 6.68784 176.716 6.58723 176.894 6.95617Z" fill="#263238"/>
<path d="M169.73 11.7858C173.58 19.6118 176.537 22.5521 183.122 28.1757C183.211 28.2539 183.122 28.4216 182.988 28.3545C176.113 23.3683 172.319 20.1596 169.495 11.8529C169.317 11.4839 169.551 11.428 169.73 11.7858Z" fill="#263238"/>
<path d="M162.933 17.9795C167.208 25.2688 170.21 28.8576 177.263 33.5085C177.293 33.5317 177.314 33.5651 177.321 33.6025C177.329 33.64 177.322 33.6788 177.303 33.7118C177.284 33.7447 177.253 33.7695 177.217 33.7815C177.181 33.7935 177.142 33.7918 177.107 33.7768C169.451 29.7408 165.679 25.2912 162.721 18.1248C162.52 17.6441 162.666 17.5211 162.933 17.9795Z" fill="#263238"/>
<path d="M223.532 33.4747C223.532 33.4747 220.631 22.0152 209.783 17.8227C205.397 16.1234 199.271 3.09867 195.275 3.35581C190.811 3.65767 193.992 15.4414 199.494 21.7804C199.494 21.7804 192.15 33.4524 197.15 39.8026C198.266 41.1777 206.078 45.5268 208.065 45.1355L223.532 33.4747Z" fill="#FFCCB3"/>
<path d="M199.784 22.6082C196.771 27.0802 194.661 33.7882 196.815 38.7186C196.831 38.7482 196.835 38.7832 196.826 38.8157C196.816 38.8482 196.795 38.8756 196.765 38.8919C196.735 38.9082 196.7 38.912 196.668 38.9026C196.636 38.8932 196.608 38.8712 196.592 38.8416C193.579 33.8888 195.945 26.0405 198.88 22.2281C199.438 21.4902 200.565 21.4902 199.784 22.6082Z" fill="#263238"/>
<path d="M290.961 178.334C277.435 171.883 238.688 158.702 212.216 152.296C188.523 146.583 164.038 154.823 140.368 162.783C125.402 167.814 111.274 172.565 97.5693 173.829C43.7893 178.793 26.2234 140.512 25.0293 138.88L34.9617 141.362L36.7138 130.249C37.7182 131.613 50.8647 163.543 96.2524 159.317C108.272 158.199 121.619 153.727 135.759 148.964C160.188 140.747 187.876 131.434 215.62 138.12C243.062 144.727 285.169 157.864 295.023 164.314L290.961 178.334Z" fill="#5DBD6D"/>
<path d="M103.038 459.635L113.472 457.745C113.472 457.745 102.312 446.342 109.176 439.321C116.039 432.3 126.284 438.505 126.284 438.505C126.284 438.505 124.688 421.813 137.578 418.325C150.468 414.837 161.795 439.779 161.795 439.779C161.795 439.779 163.692 433.921 173.312 436.224C182.932 438.527 190.532 451.652 190.532 451.652L388.298 459.534" fill="white"/>
<path d="M0.945312 459.856L14.1993 457.916V457.995C11.2973 455.61 8.93573 452.848 7.21753 449.831C6.35521 448.311 5.87333 446.674 5.79847 445.009C5.74789 443.319 6.40652 441.663 7.67163 440.299C8.29404 439.626 9.02379 439.019 9.84278 438.494C10.6577 437.959 11.5482 437.499 12.4964 437.126C14.4024 436.404 16.4852 436.022 18.5983 436.004C22.8254 436.015 26.9766 436.892 30.6461 438.55L30.2914 438.729C30.0728 436.21 30.2828 433.68 30.9157 431.205C31.5086 428.715 32.6931 426.337 34.4066 424.196C35.7201 422.591 37.4349 421.215 39.4456 420.152C41.4564 419.09 43.7207 418.363 46.0996 418.017C47.7067 417.807 49.3498 417.845 50.9386 418.129C54.0856 418.75 57.0028 419.948 59.4529 421.628C61.8943 423.25 64.1153 425.069 66.0799 427.055C69.9788 431.03 73.3101 435.332 76.0133 439.884H75.4172C76.2295 438.392 77.7171 437.192 79.5893 436.52C81.4151 435.871 83.4072 435.568 85.4074 435.634C89.3775 435.703 93.2505 436.617 96.6179 438.281C99.9267 439.952 102.914 441.992 105.487 444.336C108.09 446.647 110.422 449.139 112.455 451.782L112.27 451.693L363.741 459.778L112.256 452.04H112.142V451.962C110.119 449.341 107.791 446.874 105.189 444.594C102.64 442.288 99.6815 440.286 96.4051 438.651C93.1163 437.035 89.3361 436.151 85.4641 436.094C83.5545 436.034 81.6538 436.329 79.9157 436.957C78.2026 437.575 76.8418 438.674 76.0984 440.041L75.8146 440.58L75.5024 440.064C72.79 435.561 69.4588 431.308 65.569 427.381C63.6475 425.418 61.469 423.621 59.0698 422.02C56.7164 420.388 53.9124 419.212 50.8818 418.589C49.3172 418.304 47.697 418.266 46.1138 418.477C44.5862 418.694 43.102 419.071 41.7005 419.598C38.8722 420.663 36.4745 422.329 34.7755 424.409C33.0947 426.506 31.9296 428.834 31.3414 431.272C30.7086 433.705 30.4844 436.194 30.6745 438.673V439.021L30.2914 438.853C26.704 437.216 22.6409 436.343 18.499 436.318C16.4371 436.344 14.4074 436.727 12.5532 437.44C10.7101 438.161 9.10257 439.208 7.8561 440.501C6.64591 441.799 6.00783 443.375 6.03971 444.987C6.08363 446.62 6.52695 448.23 7.34524 449.73C9.01748 452.741 11.3256 455.506 14.1709 457.905L14.256 457.973H14.1425L0.945312 459.856Z" fill="#BFBFBF"/>
<path d="M234.815 169.48C229.235 169.703 223.655 169.815 218.075 169.905C212.495 169.994 206.915 169.994 201.335 170.039C195.755 170.083 190.175 170.039 184.595 169.905L176.214 169.748C173.424 169.659 170.634 169.603 167.844 169.48C170.634 169.357 173.424 169.301 176.214 169.2L184.595 169.044C190.175 168.954 195.755 168.965 201.335 168.921C206.915 168.876 212.495 168.921 218.075 169.055C223.655 169.189 229.224 169.245 234.815 169.48Z" fill="#263238"/>
<path d="M321.037 36.9633C315.457 37.1869 309.877 37.2987 304.297 37.3882C298.717 37.4776 293.137 37.4664 287.557 37.5112C281.977 37.5559 276.397 37.5112 270.817 37.3882L262.436 37.2317C259.646 37.1422 256.856 37.0863 254.055 36.9633C256.856 36.8292 259.635 36.7733 262.436 36.6838L270.817 36.5273C276.397 36.4379 281.977 36.4379 287.557 36.4043C293.137 36.3708 298.717 36.4043 304.297 36.5273C309.877 36.6503 315.446 36.7286 321.037 36.9633Z" fill="#263238"/>
<path d="M329.831 43.7381C326.171 43.9728 322.522 44.0735 318.861 44.1629C315.201 44.2523 311.551 44.2859 307.902 44.2971C304.253 44.3082 300.581 44.2971 296.932 44.1741L291.452 44.0176C289.633 43.9169 287.803 43.8722 285.973 43.7381C287.803 43.6151 289.633 43.5592 291.452 43.4697L296.943 43.3132C300.592 43.2126 304.253 43.1902 307.913 43.1791C311.574 43.1679 315.223 43.1791 318.872 43.3132C322.522 43.4474 326.171 43.5145 329.831 43.7381Z" fill="#263238"/>
<path d="M90.7169 250.904C85.8176 251.127 80.9072 251.239 76.008 251.329C71.1087 251.418 66.1983 251.418 61.2991 251.463C56.3999 251.508 51.4895 251.463 46.5791 251.329L39.2358 251.172C36.7806 251.083 34.3254 251.027 31.8813 250.904C34.3254 250.781 36.7806 250.725 39.2358 250.624L46.5902 250.468C51.5006 250.378 56.3999 250.39 61.3103 250.345C66.2207 250.3 71.1199 250.345 76.0191 250.479C80.9184 250.613 85.8176 250.68 90.7169 250.904Z" fill="#263238"/>
<path d="M123.137 240.831C118.227 241.054 113.327 241.166 108.417 241.256C103.507 241.345 98.6074 241.345 93.7082 241.39C88.809 241.435 83.8986 241.39 78.9882 241.256L71.6337 241.099C69.1785 241.01 66.7345 240.954 64.2793 240.831C66.7345 240.697 69.1785 240.652 71.6337 240.551L78.9882 240.395C83.8986 240.305 88.7978 240.317 93.7082 240.272C98.6186 240.227 103.518 240.272 108.417 240.395C113.316 240.518 118.227 240.618 123.137 240.831Z" fill="#263238"/>
<path d="M244.87 183.868C237.058 184.102 229.246 184.203 221.434 184.292L197.998 184.427L174.562 184.304L162.867 184.147C158.961 184.046 155.055 184.002 151.16 183.868C155.066 183.745 158.972 183.689 162.867 183.599L174.562 183.443L197.998 183.309L221.434 183.443C229.28 183.532 237.069 183.599 244.87 183.868Z" fill="#263238"/>
<path d="M364.628 439.51C358.981 439.745 353.334 439.846 347.687 439.935C342.04 440.025 336.382 440.025 330.735 440.069C325.088 440.114 319.441 440.069 313.794 439.935L305.313 439.779C302.489 439.689 299.666 439.633 296.842 439.51C299.666 439.387 302.489 439.331 305.313 439.231L313.794 439.074C319.441 438.996 325.088 438.996 330.735 438.951C336.382 438.907 342.04 438.951 347.687 439.085C353.334 439.22 358.981 439.276 364.628 439.51Z" fill="#BFBFBF"/>
<path d="M348.212 446.811C340.232 447.046 332.242 447.158 324.263 447.247L300.302 447.37L276.353 447.247L264.378 447.09C260.383 447.001 256.399 446.945 252.403 446.811C256.399 446.688 260.383 446.632 264.378 446.543L276.353 446.386L300.302 446.252L324.263 446.386C332.242 446.476 340.232 446.587 348.212 446.811Z" fill="#BFBFBF"/>
<path d="M197.005 174.935C190.309 175.159 183.535 175.271 176.805 175.36C170.076 175.45 163.335 175.438 156.606 175.494C149.876 175.55 143.135 175.494 136.395 175.36L126.295 175.204C122.947 175.114 119.599 175.058 116.251 174.935C119.599 174.801 122.947 174.745 126.295 174.656L136.395 174.499C143.091 174.41 149.865 174.421 156.606 174.376C163.346 174.332 170.065 174.376 176.805 174.499C183.546 174.622 190.275 174.656 197.005 174.935Z" fill="#263238"/>
</svg>
